<!-- 
  copied from  https://codepen.io/smalinux/pen/rLPvzG
  developed by Sohaib Mohammed - https://codepen.io/smalinux/
-->
<svg version="1.1"
	 xmlns="http://www.w3.org/2000/svg" xmlns:xlink="http://www.w3.org/1999/xlink" xmlns:a="http://ns.adobe.com/AdobeSVGViewerExtensions/3.0/"
	 x="0px" y="0px" width="657.5px" height="614.9px" viewBox="0 0 657.5 614.9" enable-background="new 0 0 657.5 614.9"
	 xml:space="preserve">
<g id="g6">
	<g id="g6Rotatable">
		<linearGradient id="SVGID" gradientUnits="userSpaceOnUse" x1="57.7451" y1="45.719" x2="207.0787" y2="267.0527">
			<stop  offset="0" style="stop-color:#72767B"/>
			<stop  offset="1" style="stop-color:#DEDFE0"/>
		</linearGradient>
		<path fill="url(#SVGID)" d="M62,43.6c-35,20.5-46.8,65.5-26.3,100.6c20.5,35,65.5,46.8,100.6,26.3
			c35-20.5,46.8-65.5,26.3-100.6C142,34.9,97,23.1,62,43.6z M92.4,95.6c6.3-3.7,14.4-1.6,18.1,4.7c3.7,6.3,1.6,14.4-4.7,18.1
			c-6.3,3.7-14.4,1.6-18.1-4.7C84,107.4,86.1,99.3,92.4,95.6z M53.3,142.9c-13.2,0.1-20-0.5-20.3-36.6c-0.2-36.2,6.6-36.8,19.8-36.9
			C66.1,69.3,77.5,94,77.6,106C77.7,117.9,66.5,142.8,53.3,142.9z M132.2,162.7c-31.2,18.3-35.2,12.7-41.8,1.3
			c-6.7-11.4,9-33.7,19.3-39.7c10.3-6,37.4-8.8,44.1,2.6C160.5,138.2,163.4,144.4,132.2,162.7z M153.6,84.2
			c-6.5,11.5-33.7,9-44.1,3.1c-10.4-5.9-26.4-28-19.8-39.5c6.5-11.5,10.4-17.1,41.9,0.8C163,66.5,160.1,72.7,153.6,84.2z"/>
		<linearGradient id="SVGID_2_" gradientUnits="userSpaceOnUse" x1="20.5761" y1="-12.7818" x2="228.5759" y2="300.5512">
			<stop  offset="0" style="stop-color:#DEDFE0"/>
			<stop  offset="1" style="stop-color:#7A7F83"/>
		</linearGradient>
		<path fill="url(#SVGID_2_)" d="M185.2,55.4L185.2,55.4l-2.8-4.6c0,0-6.9-0.3-14.7,3.8c-0.3,0.2-0.6,0.3-0.9,0.5
			c-2.8-3.7-5.9-7.1-9.2-10.2c0.2-0.3,0.5-0.6,0.7-0.9c5-7.2,5.5-14.1,5.5-14.1l-4.2-3.3l0,0l-0.1-0.1l-0.1-0.1l0,0l-4.4-3.2
			c0,0-6.5,2.3-12.1,9.2c-0.3,0.3-0.5,0.7-0.8,1c-4-2.3-8.1-4.3-12.3-5.9c0.1-0.4,0.2-0.9,0.3-1.3c1.9-8.6-0.3-15.2-0.3-15.2
			l-5.2-1.5l0,0l-0.1,0l-0.1,0l0,0l-5.2-1.3c0,0-5.1,4.6-7.7,13.1c-0.1,0.4-0.3,0.9-0.4,1.3c-4.3-0.6-8.7-0.9-13.1-0.9
			c-0.1-0.9-0.3-1.8-0.4-2.6c-1.6-8.7-6.1-13.9-6.1-13.9l-5.3,0.6l0,0l-0.1,0l-0.1,0l0,0l-5.3,0.8c0,0-2.9,6.2-2.1,15
			c0.1,0.8,0.2,1.6,0.3,2.4c-4.5,1.1-8.9,2.6-13.3,4.4c-0.3-0.5-0.6-1-0.9-1.4c-4.8-7.4-10.9-10.5-10.9-10.5l-4.7,2.6l0,0L49,19.4
			l-0.1,0.1l0,0l-4.6,2.8c0,0-0.3,6.9,3.8,14.7c0.2,0.4,0.4,0.8,0.7,1.2c-3.7,2.7-7.2,5.7-10.4,8.9c-0.3-0.2-0.7-0.5-1-0.7
			c-7.2-5-14.1-5.5-14.1-5.5L20,45.1l0,0l-0.1,0.1l-0.1,0.1l0,0l-3.2,4.4c0,0,2.3,6.5,9.2,12.1c0.2,0.2,0.5,0.4,0.7,0.5
			c-2.4,4-4.6,8.1-6.3,12.4c-0.2,0-0.4-0.1-0.6-0.1C11,72.6,4.4,74.8,4.4,74.8L3,80l0,0l0,0.1l0,0.1l0,0l-1.3,5.2
			c0,0,4.6,5.1,13.1,7.7c0.1,0,0.1,0,0.2,0.1c-0.8,4.7-1.2,9.4-1.1,14.2c-8.6,1.6-13.8,6-13.8,6l0.6,5.3l0,0l0,0.1l0,0.1l0,0
			l0.8,5.3c0,0,6,2.8,14.5,2.1c1.1,4.7,2.6,9.3,4.5,13.8c-7.2,4.7-10.1,10.7-10.1,10.7l2.6,4.7l0,0l0.1,0.1l0.1,0.1l0,0l2.8,4.6
			c0,0,6.5,0.3,14-3.5c2.9,4,6.1,7.8,9.6,11.1c-4.5,6.9-5,13.3-5,13.3l4.2,3.3l0,0l0.1,0.1l0.1,0.1l0,0l4.4,3.2
			c0,0,5.9-2.1,11.3-8.2c4.3,2.6,8.7,4.8,13.4,6.6c-1.4,7.9,0.5,13.8,0.5,13.8l5.2,1.5l0,0l0.1,0l0.1,0l0,0l5.2,1.3
			c0,0,4.5-4.1,7.2-11.7c4.9,0.7,10,1.1,15,0.9c1.8,7.8,5.8,12.4,5.8,12.4l5.3-0.6l0,0l0.1,0l0.1,0l0,0l5.3-0.8
			c0,0,2.6-5.5,2.2-13.5c5.1-1.3,10-3.1,14.9-5.3c4.6,6.2,9.8,8.9,9.8,8.9l4.7-2.6l0,0l0.1-0.1l0.1-0.1l0,0l4.6-2.8
			c0,0,0.3-6-3.1-13.2c4-3.1,7.7-6.5,11-10.2c6.8,4.3,13,4.8,13,4.8l3.3-4.2l0,0l0.1-0.1l0.1-0.1l0,0l3.2-4.4c0,0-2.2-6.1-8.5-11.5
			c2.4-4.3,4.4-8.7,6-13.3c8.4,1.7,14.7-0.4,14.7-0.4l1.5-5.2l0,0l0-0.1l0-0.1l0,0l1.3-5.2c0,0-4.6-5.1-13.1-7.7c0,0-0.1,0-0.1,0
			c0.5-4.2,0.7-8.5,0.5-12.8c0,0,0.1,0,0.1,0c8.7-1.6,13.9-6.1,13.9-6.1l-0.6-5.3l0,0l0-0.1l0-0.1l0,0l-0.8-5.3c0,0-6.2-2.9-15-2.1
			c-0.1,0-0.2,0-0.3,0c-1.2-4.5-2.8-8.9-4.8-13.2c0.2-0.1,0.5-0.3,0.7-0.4c7.4-4.8,10.5-10.9,10.5-10.9l-2.6-4.7l0,0l-0.1-0.1
			L185.2,55.4z M136.3,170.4c-35,20.5-80,8.8-100.6-26.3c-20.5-35-8.8-80,26.3-100.6c35-20.5,80-8.8,100.6,26.3
			C183,104.9,171.3,149.9,136.3,170.4z"/>
	</g>
	<linearGradient id="SVGID_3_" gradientUnits="userSpaceOnUse" x1="83.5165" y1="83.3056" x2="142.6559" y2="169.4803">
		<stop  offset="0" style="stop-color:#DEDFE0"/>
		<stop  offset="0.1656" style="stop-color:#D7D8D9"/>
		<stop  offset="0.4078" style="stop-color:#C3C5C7"/>
		<stop  offset="0.697" style="stop-color:#A3A7A9"/>
		<stop  offset="1" style="stop-color:#7A7F83"/>
	</linearGradient>
	<path fill="url(#SVGID_3_)" d="M92.4,94.6c-6.3,3.7-8.4,11.8-4.7,18.1c3.7,6.3,11.8,8.4,18.1,4.7c6.3-3.7,8.4-11.8,4.7-18.1
		C106.8,93,98.7,90.9,92.4,94.6z M103.3,113.2c-3.9,2.3-9,1-11.3-3c-2.3-3.9-1-9,3-11.3c3.9-2.3,9-1,11.3,3
		C108.5,105.8,107.2,110.8,103.3,113.2z"/>
	<g>
		<path fill="#DEDFE0" d="M88.7,113.7c-3.7-6.3-1.6-14.4,4.7-18.1c5.1-3,11.4-2.2,15.5,1.6c-4.1-4.6-11-5.8-16.5-2.6
			c-6.3,3.7-8.4,11.8-4.7,18.1c0.7,1.2,1.6,2.3,2.6,3.1C89.7,115.2,89.2,114.5,88.7,113.7z"/>
	</g>
	<linearGradient id="SVGID_4_" gradientUnits="userSpaceOnUse" x1="34.1743" y1="11.2098" x2="186.8414" y2="233.8768">
		<stop  offset="0" style="stop-color:#7A7F83"/>
		<stop  offset="1" style="stop-color:#EBECEC"/>
	</linearGradient>
	<path fill="url(#SVGID_4_)" d="M99.4,30.3c-42,0-76,34-76,76s34,76,76,76s76-34,76-76S141.3,30.3,99.4,30.3z M136.3,169.4
		c-35,20.5-80,8.8-100.6-26.3c-20.5-35-8.8-80,26.3-100.6s80-8.8,100.6,26.3S171.3,148.9,136.3,169.4z"/>
</g>
<g id="g5">
	<g id="g5Rotatable">
		<linearGradient id="SVGID_5_" gradientUnits="userSpaceOnUse" x1="267.3711" y1="60.0113" x2="434.0378" y2="280.0113">
			<stop  offset="0" style="stop-color:#72767B"/>
			<stop  offset="1" style="stop-color:#CACCCE"/>
		</linearGradient>
		<path fill="url(#SVGID_5_)" d="M443.7,104.4c-32-54.6-102.1-72.9-156.7-40.9c-54.6,32-72.9,102.1-40.9,156.7
			c32,54.6,102.1,72.9,156.7,40.9C457.3,229.2,475.7,159,443.7,104.4z M274.6,190.9c-15.8,0-28.6-12.8-28.6-28.6
			c0-15.8,12.8-28.6,28.6-28.6c15.8,0,28.6,12.8,28.6,28.6C303.2,178.1,290.4,190.9,274.6,190.9z M344.9,261.1
			c-15.8,0-28.6-12.8-28.6-28.6c0-15.8,12.8-28.6,28.6-28.6c15.8,0,28.6,12.8,28.6,28.6C373.5,248.4,360.7,261.1,344.9,261.1z
			 M333.4,144.3c9.8-5.7,22.4-2.5,28.2,7.4c5.7,9.8,2.5,22.4-7.4,28.2c-9.8,5.7-22.4,2.5-28.2-7.4
			C320.3,162.6,323.6,150,333.4,144.3z M344.9,120.6c-15.8,0-28.6-12.8-28.6-28.6c0-15.8,12.8-28.6,28.6-28.6
			c15.8,0,28.6,12.8,28.6,28.6C373.5,107.8,360.7,120.6,344.9,120.6z M415.1,190.9c-15.8,0-28.6-12.8-28.6-28.6
			c0-15.8,12.8-28.6,28.6-28.6c15.8,0,28.6,12.8,28.6,28.6C443.7,178.1,430.9,190.9,415.1,190.9z"/>
		<linearGradient id="SVGID_6_" gradientUnits="userSpaceOnUse" x1="222.1285" y1="-6.0665" x2="554.1281" y2="448.6">
			<stop  offset="0" style="stop-color:#DEDFE0"/>
			<stop  offset="1" style="stop-color:#7A7F83"/>
		</linearGradient>
		<path fill="url(#SVGID_6_)" d="M491.4,170c0.1-2.7,0.2-5.3,0.2-8c0-1.6,0-3.1-0.1-4.6c9.4-1.3,15.3-5.3,15.3-5.3l-0.4-5l0,0l0-0.1
			l0-0.1l0,0l-0.6-5c0,0-6.5-2.9-16-2.4c-0.6-4.2-1.5-8.3-2.5-12.4c8.9-3.2,13.8-8.3,13.8-8.3l-1.4-4.8l0,0l0-0.1l0-0.1l0,0
			l-1.6-4.8c0,0-6.9-1.4-16.1,1c-1.5-4-3.2-7.9-5-11.7c8-5,11.7-11,11.7-11l-2.4-4.5l0,0l-0.1-0.1l-0.1-0.1l0,0l-2.6-4.3
			c0,0-7,0-15.5,4.3c-2.3-3.6-4.7-7-7.3-10.4c6.8-6.5,9.2-13.1,9.2-13.1l-3.3-3.9l0,0l-0.1-0.1l-0.1-0.1l0,0l-3.4-3.7
			c0,0-6.8,1.5-14.2,7.4c-3-3-6.1-5.9-9.3-8.7c5.2-7.8,6.2-14.7,6.2-14.7l-4-3.1l0,0l-0.1-0.1l-0.1-0.1l0,0l-4.1-2.9
			c0,0-6.3,2.9-12.2,10c-3.6-2.3-7.2-4.6-11-6.6c3.4-8.6,2.9-15.5,2.9-15.5l-4.5-2.2l0,0l-0.1,0l-0.1-0.1l0,0l-4.6-2
			c0,0-5.5,4.1-9.8,12.2c-4-1.6-8-2.9-12.2-4.2c1.5-9-0.4-15.6-0.4-15.6L380.9,4l0,0l-0.1,0l-0.1,0l0,0l-4.9-1c0,0-4.5,5.1-7,13.8
			c-5-0.8-10.2-1.4-15.3-1.7c-0.5-9-3.8-14.9-3.8-14.9l-5-0.1v0l-0.1,0l-0.1,0v0l-5,0.1c0,0-3.2,5.9-3.8,14.9
			c-4.3,0.3-8.6,0.7-12.9,1.3c-2.4-8.7-6.8-13.8-6.8-13.8l-5,0.9l0,0l-0.1,0l-0.1,0l0,0l-4.9,1.2c0,0-2,6.4-0.6,15.3
			c-4.2,1.2-8.3,2.5-12.3,4c-4.2-8-9.5-12-9.5-12l-4.7,2l0,0l-0.1,0l-0.1,0l0,0l-4.6,2.1c0,0-0.6,6.7,2.6,15.1
			c-3.8,2-7.6,4.2-11.2,6.5c-5.7-7-11.8-9.8-11.8-9.8l-4.1,2.9l0,0l-0.1,0.1l-0.1,0.1l0,0l-4,3.1c0,0,0.8,6.7,5.7,14.3
			c-3.3,2.7-6.5,5.6-9.6,8.7c-7.1-5.6-13.6-7.2-13.6-7.2l-3.5,3.7l0,0l-0.1,0.1l-0.1,0.1l0,0l-3.3,3.8c0,0,2.2,6.3,8.5,12.8
			c-2.7,3.4-5.2,6.9-7.6,10.5c-8.1-4-14.8-4.2-14.8-4.2l-2.6,4.3l0,0l-0.1,0.1l-0.1,0.1l0,0l-2.4,4.4c0,0,3.4,5.7,11,10.7
			c-1.9,3.8-3.7,7.8-5.3,11.8c-8.7-2.3-15.3-1-15.3-1l-1.7,4.8l0,0l0,0.1l0,0.1l0,0l-1.5,4.8c0,0,4.6,4.9,13,8.2
			c-1.1,4.2-2,8.4-2.7,12.7c-9-0.4-15.2,2.2-15.2,2.2l-0.6,5l0,0l0,0.1l0,0.1l0,0l-0.4,5c0,0,5.5,3.8,14.4,5.3
			c-0.1,2.1-0.1,4.3-0.1,6.5c0,2.2,0.1,4.3,0.1,6.5c-8.9,1.5-14.4,5.3-14.4,5.3l0.4,5l0,0l0,0.1l0,0.1l0,0l0.6,5
			c0,0,6.2,2.6,15.2,2.2c0.7,4.3,1.6,8.5,2.7,12.7c-8.4,3.3-13,8.2-13,8.2l1.5,4.8l0,0l0,0.1l0,0.1l0,0l1.7,4.8c0,0,6.6,1.3,15.3-1
			c1.6,4,3.4,8,5.3,11.8c-7.5,5-11,10.7-11,10.7l2.4,4.4l0,0l0.1,0.1l0.1,0.1l0,0l2.6,4.3c0,0,6.7-0.1,14.8-4.2
			c2.4,3.6,4.9,7,7.5,10.4c-6.4,6.4-8.6,12.7-8.6,12.7l3.3,3.8l0,0l0.1,0.1l0.1,0.1l0,0l3.4,3.7c0,0,6.6-1.5,13.7-7.1
			c3.1,3,6.2,5.9,9.6,8.6c-5,7.7-5.9,14.4-5.9,14.4l4,3.1l0,0l0.1,0.1l0.1,0.1l0,0l4.1,2.9c0,0,6.2-2.9,12-10
			c3.6,2.3,7.3,4.4,11.1,6.4c-3.4,8.6-2.8,15.4-2.8,15.4l4.6,2.2l0,0l0.1,0l0.1,0l0,0l4.6,2c0,0,5.5-4.1,9.8-12.4
			c4,1.5,8,2.8,12.2,4c-1.5,9.2,0.4,15.8,0.4,15.8l4.9,1.2l0,0l0.1,0l0.1,0l0,0l5,1c0,0,4.6-5.2,7-14.3c4.2,0.6,8.4,1.1,12.7,1.3
			c0.4,9.4,3.7,15.5,3.7,15.5l5,0.1v0l0.1,0l0.1,0v0l5-0.1c0,0,3.4-6.1,3.9-15.5c4.3-0.2,8.5-0.7,12.6-1.3
			c2.3,9.1,6.9,14.5,6.9,14.5l5-0.9l0,0l0.1,0l0.1,0l0,0l4.9-1.1c0,0,2.1-6.7,0.6-16.1c4.1-1.1,8.1-2.4,12.1-3.9
			c4.2,8.5,9.8,12.8,9.8,12.8l4.7-1.9l0,0l0.1,0l0.1,0l0,0l4.6-2.1c0,0,0.7-7-2.8-15.9c3.8-1.9,7.4-4,11-6.3
			c5.8,7.5,12.2,10.5,12.2,10.5l4.2-2.9l0,0l0.1-0.1l0.1-0.1l0,0l4-3c0,0-0.8-7.1-6-15c3.3-2.7,6.4-5.5,9.5-8.4
			c7.3,6.1,14.2,7.7,14.2,7.7l3.5-3.7l0,0l0.1-0.1l0.1-0.1l0,0l3.3-3.8c0,0-2.3-6.7-9-13.4c2.7-3.3,5.2-6.7,7.6-10.2
			c8.4,4.4,15.4,4.6,15.4,4.6l2.6-4.3l0,0l0.1-0.1l0.1-0.1l0,0l2.5-4.4c0,0-3.6-6.1-11.5-11.2c1.9-3.7,3.6-7.6,5.2-11.5
			c9.1,2.6,16,1.4,16,1.4l1.7-4.7l0,0l0-0.1l0-0.1l0,0l1.5-4.8c0,0-4.8-5.2-13.6-8.6c1.1-4.1,2-8.2,2.8-12.4c9.5,0.7,16-2,16-2
			l0.7-5l0,0l0-0.1l0-0.1l0,0l0.5-5C506.6,175.7,500.8,171.5,491.4,170z M402.8,261.1c-54.6,32-124.7,13.6-156.7-40.9
			c-32-54.6-13.6-124.7,40.9-156.7s124.7-13.6,156.7,40.9C475.7,159,457.3,229.2,402.8,261.1z"/>
	</g>
	<linearGradient id="SVGID_7_" gradientUnits="userSpaceOnUse" x1="319.4339" y1="126.5567" x2="411.7679" y2="261.1006">
		<stop  offset="0" style="stop-color:#DEDFE0"/>
		<stop  offset="0.1656" style="stop-color:#D7D8D9"/>
		<stop  offset="0.4078" style="stop-color:#C3C5C7"/>
		<stop  offset="0.697" style="stop-color:#A3A7A9"/>
		<stop  offset="1" style="stop-color:#7A7F83"/>
	</linearGradient>
	<path fill="url(#SVGID_7_)" d="M333.3,144.2c-9.8,5.8-13.1,18.4-7.4,28.2c5.8,9.8,18.4,13.1,28.2,7.4s13.1-18.4,7.4-28.2
		C355.8,141.8,343.2,138.5,333.3,144.2z M350.3,173.2c-6.2,3.6-14.1,1.5-17.7-4.6c-3.6-6.2-1.5-14.1,4.6-17.7
		c6.2-3.6,14.1-1.5,17.7,4.6C358.5,161.6,356.5,169.6,350.3,173.2z"/>
	<g>
		<path fill="#EBECEC" d="M327.5,174c-5.8-9.8-2.5-22.5,7.4-28.2c7.9-4.7,17.7-3.4,24.2,2.5c-6.4-7.2-17.2-9.1-25.8-4
			c-9.8,5.8-13.1,18.4-7.4,28.2c1.1,1.9,2.5,3.5,4,4.9C329.1,176.3,328.2,175.2,327.5,174z"/>
	</g>
	<linearGradient id="SVGID_8_" gradientUnits="userSpaceOnUse" x1="243.1914" y1="22.4164" x2="441.8586" y2="295.7499">
		<stop  offset="0" style="stop-color:#595F64"/>
		<stop  offset="1" style="stop-color:#FFFFFF"/>
	</linearGradient>
	<path fill="url(#SVGID_8_)" d="M462.9,162.3c0-65.2-52.8-118-118-118s-118,52.8-118,118c0,65.2,52.8,118,118,118
		S462.9,227.5,462.9,162.3z M402.8,261.1c-54.6,32-124.7,13.6-156.7-40.9c-32-54.6-13.6-124.7,40.9-156.7
		c54.6-32,124.7-13.6,156.7,40.9C475.7,159,457.3,229.2,402.8,261.1z"/>
</g>
<g id="g4">
	<linearGradient id="SVGID_9_" gradientUnits="userSpaceOnUse" x1="548.617" y1="230.0907" x2="594.6169" y2="291.5905">
		<stop  offset="0" style="stop-color:#DEDFE0"/>
		<stop  offset="0.1656" style="stop-color:#D7D8D9"/>
		<stop  offset="0.4078" style="stop-color:#C3C5C7"/>
		<stop  offset="0.697" style="stop-color:#A3A7A9"/>
		<stop  offset="1" style="stop-color:#7A7F83"/>
	</linearGradient>
	<path fill="url(#SVGID_9_)" d="M554.2,233.8c-9.5,5.6-12.7,17.8-7.1,27.3c5.6,9.5,17.8,12.7,27.3,7.1c9.5-5.6,12.7-17.8,7.1-27.3
		C575.9,231.4,563.7,228.2,554.2,233.8z M569.3,259.7c-4.8,2.8-10.9,1.2-13.7-3.6c-2.8-4.8-1.2-10.9,3.6-13.7
		c4.8-2.8,10.9-1.2,13.7,3.6C575.7,250.7,574.1,256.9,569.3,259.7z"/>
	<g>
		<path fill="#EBECEC" d="M548.6,262.6c-5.6-9.5-2.4-21.7,7.1-27.3c7.7-4.5,17.2-3.3,23.4,2.4c-6.2-6.9-16.6-8.8-25-3.9
			c-9.5,5.6-12.7,17.8-7.1,27.3c1.1,1.8,2.4,3.4,3.9,4.7C550,264.9,549.2,263.8,548.6,262.6z"/>
	</g>
	<g id="g4Rotatable">
		<linearGradient id="SVGID_10_" gradientUnits="userSpaceOnUse" x1="512.902" y1="176.249" x2="624.9019" y2="339.2489">
			<stop  offset="0" style="stop-color:#676B71"/>
			<stop  offset="1" style="stop-color:#CACCCE"/>
		</linearGradient>
		<path fill="url(#SVGID_10_)" d="M557.3,186.4c-35.6,3.7-61.4,35.6-57.6,71.2c3.7,35.6,35.6,61.4,71.2,57.6s61.4-35.6,57.6-71.2
			C624.7,208.4,592.9,182.6,557.3,186.4z M557.6,188.8c9.9-1,18.7,6.1,19.8,16c1,9.9-6.1,18.7-16,19.8c-9.9,1-18.7-6.1-19.8-16
			C540.5,198.7,547.7,189.9,557.6,188.8z M522,273.3c-9.9,1-18.7-6.1-19.8-16c-1-9.9,6.1-18.7,16-19.8c9.9-1,18.7,6.1,19.8,16
			C539,263.4,531.9,272.3,522,273.3z M570.6,312.7c-9.9,1-18.7-6.1-19.8-16c-1-9.9,6.1-18.7,16-19.8c9.9-1,18.7,6.1,19.8,16
			C587.7,302.8,580.5,311.6,570.6,312.7z M566.2,270.4c-10.8,1.1-20.6-6.7-21.7-17.6c-1.1-10.8,6.7-20.6,17.6-21.7
			c10.8-1.1,20.6,6.7,21.7,17.6C584.9,259.5,577,269.3,566.2,270.4z M610,264c-9.9,1-18.7-6.1-19.8-16c-1-9.9,6.1-18.7,16-19.8
			c9.9-1,18.7,6.1,19.8,16C627,254.1,619.9,263,610,264z"/>
		<linearGradient id="SVGID_11_" gradientUnits="userSpaceOnUse" x1="500.6216" y1="163.9147" x2="671.6628" y2="398.1521">
			<stop  offset="0" style="stop-color:#DEDFE0"/>
			<stop  offset="1" style="stop-color:#7A7F83"/>
		</linearGradient>
		<path fill="url(#SVGID_11_)" d="M647.5,242L647.5,242l-0.6-4.5c0,0-5.2-2.6-12.6-2.2c-0.3,0-0.6,0-0.9,0.1
			c-0.9-3.8-2.1-7.5-3.5-11.1c0.3-0.2,0.6-0.3,0.8-0.5c6.4-3.8,9.2-8.9,9.2-8.9l-2.1-4l0,0l-0.1-0.1l0-0.1l0,0l-2.2-4
			c0,0-5.8-0.5-12.5,2.8c-0.3,0.2-0.6,0.3-1,0.5c-2.2-3.1-4.7-6.1-7.4-8.8c0.2-0.3,0.5-0.6,0.7-0.9c4.4-6,5.1-11.7,5.1-11.7
			l-3.5-2.9l0,0l-0.1-0.1l-0.1-0.1l0,0l-3.6-2.8c0,0-5.5,1.8-10.4,7.4c-0.2,0.3-0.5,0.6-0.7,0.9c-3.1-2-6.4-3.7-9.8-5.2
			c0.2-0.8,0.4-1.5,0.6-2.2c1.8-7.2,0.2-12.8,0.2-12.8l-4.3-1.4l0,0l-0.1,0l-0.1,0l0,0l-4.4-1.2c0,0-4.4,3.8-6.8,10.8
			c-0.2,0.6-0.4,1.3-0.6,2c-3.8-0.7-7.8-1.1-11.8-1.2c-0.1-0.5-0.1-0.9-0.2-1.4c-1.1-7.4-4.7-11.9-4.7-11.9l-4.5,0.4l0,0l-0.1,0
			l-0.1,0l0,0l-4.5,0.6c0,0-2.6,5.2-2.2,12.6c0,0.4,0.1,0.8,0.1,1.2c-3.8,0.8-7.5,1.9-11.1,3.2c-0.2-0.3-0.3-0.6-0.5-0.9
			c-3.8-6.4-8.9-9.2-8.9-9.2l-4,2.1l0,0l-0.1,0.1l-0.1,0l0,0l-4,2.2c0,0-0.5,5.8,2.8,12.5c0.1,0.2,0.2,0.4,0.3,0.7
			c-3.3,2.2-6.3,4.7-9.2,7.3c-0.1-0.1-0.3-0.2-0.4-0.3c-6-4.4-11.7-5.1-11.7-5.1l-2.9,3.5l0,0l-0.1,0.1l-0.1,0.1l0,0l-2.8,3.6
			c0,0,1.8,5.5,7.4,10.4c0,0,0.1,0.1,0.1,0.1c-2.2,3.3-4.2,6.8-5.8,10.5c-7.2-1.8-12.7-0.2-12.7-0.2l-1.4,4.3l0,0l0,0.1l0,0.1l0,0
			l-1.2,4.4c0,0,3.6,4.2,10.4,6.7c-0.8,4-1.2,8-1.3,12.2c-7.1,1.1-11.5,4.7-11.5,4.7l0.4,4.5l0,0l0,0.1l0,0.1l0,0l0.6,4.5
			c0,0,4.9,2.5,12,2.2c0.8,4.1,2,8.1,3.5,11.9c-5.9,3.8-8.4,8.5-8.4,8.5l2.1,4l0,0l0.1,0.1l0,0.1l0,0l2.2,4c0,0,5.3,0.4,11.5-2.4
			c2.4,3.5,5,6.7,8,9.7c-3.8,5.6-4.4,10.8-4.4,10.8l3.5,2.9l0,0l0.1,0.1l0.1,0.1l0,0l3.6,2.8c0,0,4.9-1.6,9.6-6.5
			c3.5,2.3,7.3,4.3,11.2,5.9c-1.3,6.6,0.1,11.5,0.1,11.5l4.3,1.4l0,0l0.1,0l0.1,0l0,0l4.4,1.2c0,0,3.9-3.4,6.4-9.6
			c4.3,0.8,8.8,1.1,13.3,1.1c1.3,6.4,4.4,10.2,4.4,10.2l4.5-0.4l0,0l0.1,0l0.1,0l0,0l4.5-0.6c0,0,2.3-4.5,2.2-11.2
			c4.2-1,8.2-2.3,12-4c3.7,5.7,8.3,8.2,8.3,8.2l4-2.1l0,0l0.1-0.1l0.1,0l0,0l4-2.2c0,0,0.4-5.4-2.5-11.8c3.3-2.4,6.4-5.2,9.2-8.1
			c5.9,4.2,11.5,4.8,11.5,4.8l2.9-3.5l0,0l0.1-0.1l0.1-0.1l0,0l2.8-3.6c0,0-1.8-5.5-7.4-10.4c0,0-0.1,0-0.1-0.1
			c1.8-3.1,3.5-6.3,4.8-9.7c0,0,0.1,0,0.1,0c7.2,1.8,12.8,0.2,12.8,0.2l1.4-4.3l0,0l0-0.1l0-0.1l0,0l1.2-4.4c0,0-3.8-4.4-10.8-6.8
			c-0.1,0-0.2-0.1-0.3-0.1c0.6-3.9,1-7.8,0.9-11.8c0.2,0,0.5-0.1,0.7-0.1c7.4-1.1,11.9-4.7,11.9-4.7l-0.4-4.5l0,0l0-0.1L647.5,242z
			 M570.9,315.2c-35.6,3.7-67.4-22-71.2-57.6c-3.7-35.6,22-67.4,57.6-71.2c35.6-3.7,67.4,22,71.2,57.6
			C632.2,279.5,606.4,311.4,570.9,315.2z"/>
	</g>
</g>
<g id="g3">
	<g>
		<g id="g3Rotatable">
			<linearGradient id="SVGID_12_" gradientUnits="userSpaceOnUse" x1="175.5451" y1="321.2418" x2="329.3875" y2="549.2581">
				<stop  offset="0" style="stop-color:#72767B"/>
				<stop  offset="1" style="stop-color:#DEDFE0"/>
			</linearGradient>
			<path fill="url(#SVGID_12_)" d="M151.8,348c-20.1,36.7-6.6,82.7,30,102.8c36.7,20.1,82.7,6.6,102.8-30
				c20.1-36.7,6.6-82.7-30-102.8C217.8,297.9,171.8,311.4,151.8,348z M206.2,377.9c3.6-6.6,11.9-9,18.5-5.4c6.6,3.6,9,11.9,5.4,18.5
				c-3.6,6.6-11.9,9-18.5,5.4C205,392.7,202.6,384.4,206.2,377.9z M196.7,440.3c-11.6,7.1-18,10.2-37.3-21.6s-13.7-36-2.1-43.1
				c11.6-7.1,34.8,8.7,41.2,19.2C205,405.4,208.3,433.3,196.7,440.3z M276.9,416c-17.9,32.7-24.3,29.8-36.3,23.3
				c-11.9-6.5-9.9-34.5-4-45.3c5.9-10.8,28.4-27.6,40.3-21.1C289,379.4,294.8,383.4,276.9,416z M254.2,335.4
				c0.3,13.6-25,25.8-37.3,26.1c-12.3,0.3-38.1-10.8-38.4-24.4c-0.3-13.6,0.2-20.6,37.4-21.5C253.1,314.8,253.9,321.8,254.2,335.4z"
				/>
			<linearGradient id="SVGID_13_" gradientUnits="userSpaceOnUse" x1="135.8837" y1="260.2164" x2="351.4959" y2="585.0167">
				<stop  offset="0" style="stop-color:#DEDFE0"/>
				<stop  offset="1" style="stop-color:#7A7F83"/>
			</linearGradient>
			<path fill="url(#SVGID_13_)" d="M266.9,293.2L266.9,293.2l-4.9-2.6c0,0-6.2,3.4-10.9,11.2c-0.2,0.3-0.4,0.6-0.5,0.9
				c-4.5-1.8-9-3.1-13.6-4.1c0-0.4,0.1-0.8,0.1-1.2c0.6-9.1-2.6-15.4-2.6-15.4l-5.5-0.7l0,0l-0.1,0l-0.1,0l0,0l-5.5-0.5
				c0,0-4.5,5.5-5.8,14.5c-0.1,0.4-0.1,0.9-0.2,1.3c-4.7,0.1-9.4,0.5-14,1.3c-0.1-0.4-0.3-0.9-0.4-1.3c-2.9-8.6-8.3-13.2-8.3-13.2
				l-5.4,1.5l0,0l-0.1,0l-0.1,0l0,0l-5.3,1.7c0,0-2,6.8,0.2,15.6c0.1,0.4,0.2,0.9,0.4,1.3c-4.1,1.7-8.2,3.8-12,6.2
				c-0.6-0.8-1.2-1.5-1.8-2.1c-6-6.8-12.7-9.1-12.7-9.1l-4.4,3.4l0,0l-0.1,0.1L153,302l0,0l-4.3,3.6c0,0,0.7,7.1,6.1,14.4
				c0.5,0.6,1,1.3,1.5,2c-3.4,3.4-6.5,7-9.4,11c-0.5-0.3-1-0.5-1.5-0.8c-8.1-4-15.2-3.5-15.2-3.5l-2.8,4.8l0,0l-0.1,0.1l-0.1,0.1
				l0,0l-2.6,4.9c0,0,3.4,6.2,11.2,10.9c0.4,0.2,0.8,0.5,1.3,0.7c-1.9,4.4-3.3,8.9-4.4,13.4c-0.4,0-0.8-0.1-1.2-0.1
				c-9.1-0.6-15.4,2.6-15.4,2.6l-0.7,5.5l0,0l0,0.1l0,0.1l0,0l-0.5,5.5c0,0,5.5,4.5,14.5,5.8c0.3,0,0.6,0.1,0.9,0.1
				c-0.1,4.8,0.3,9.6,1,14.3c-0.2,0.1-0.4,0.1-0.6,0.2c-8.6,2.9-13.2,8.3-13.2,8.3l1.5,5.4l0,0l0,0.1l0,0.1l0,0l1.7,5.3
				c0,0,6.8,2,15.6-0.2c0.1,0,0.1,0,0.2-0.1c1.8,4.5,4,8.9,6.5,13.1c-6.8,6-9,12.7-9,12.7l3.4,4.4l0,0l0.1,0.1l0.1,0.1l0,0l3.6,4.3
				c0,0,6.8-0.7,14-5.8c3.4,3.5,7.2,6.8,11.3,9.8c-3.8,8-3.3,14.8-3.3,14.8l4.8,2.8l0,0l0.1,0.1l0.1,0.1l0,0l4.9,2.6
				c0,0,5.9-3.2,10.5-10.5c4.7,2,9.5,3.6,14.4,4.8c-0.3,8.5,2.6,14.4,2.6,14.4l5.5,0.7l0,0l0.1,0l0.1,0l0,0l5.5,0.5
				c0,0,4.1-5,5.6-13.2c5.1,0,10.3-0.4,15.3-1.2c3,7.8,7.8,11.9,7.8,11.9l5.4-1.5l0,0l0.1,0l0.1,0l0,0l5.3-1.7c0,0,1.8-6,0.2-14.1
				c4.8-2,9.4-4.3,13.7-7.1c5.7,5.9,11.7,7.9,11.7,7.9l4.4-3.4l0,0l0.1-0.1l0.1-0.1l0,0l4.3-3.6c0,0-0.6-6.3-5.2-13.1
				c3.8-3.8,7.2-8,10.3-12.6c7.3,3.1,13.4,2.7,13.4,2.7l2.8-4.8l0,0l0.1-0.1l0.1-0.1l0,0l2.6-4.9c0,0-3-5.5-9.7-10
				c1.9-4.9,3.3-9.8,4.3-14.9c8.3,0.2,14-2.6,14-2.6l0.7-5.5l0,0l0-0.1l0-0.1l0,0l0.5-5.5c0,0-5.2-4.2-13.6-5.7
				c-0.2-5-0.7-10-1.7-14.9c8.3-2.9,12.8-8.1,12.8-8.1l-1.5-5.4l0,0l0-0.1l0-0.1l0,0l-1.7-5.3c0,0-6.8-2-15.6,0.2c0,0-0.1,0-0.1,0
				c-1.8-4-3.9-7.9-6.3-11.6c0,0,0.1,0,0.1-0.1c6.8-6,9.1-12.7,9.1-12.7l-3.4-4.4l0,0l-0.1-0.1l-0.1-0.1l0,0l-3.6-4.3
				c0,0-7.1,0.7-14.4,6.1c-0.1,0.1-0.2,0.1-0.3,0.2c-3.4-3.3-7.2-6.4-11.2-9.1c0.1-0.3,0.3-0.5,0.4-0.8c4-8.1,3.5-15.2,3.5-15.2
				l-4.8-2.8l0,0l-0.1-0.1L266.9,293.2z M284.5,420.7c-20.1,36.7-66.1,50.1-102.8,30c-36.7-20.1-50.1-66.1-30-102.8
				c20.1-36.7,66.1-50.1,102.8-30C291.2,338.1,304.6,384.1,284.5,420.7z"/>
		</g>
		<linearGradient id="SVGID_14_" gradientUnits="userSpaceOnUse" x1="151.8159" y1="287.1659" x2="308.8354" y2="516.1808">
			<stop  offset="0" style="stop-color:#7A7F83"/>
			<stop  offset="1" style="stop-color:#EBECEC"/>
		</linearGradient>
		<path fill="url(#SVGID_14_)" d="M218.9,306.8c-43.2,0-78.2,35-78.2,78.2c0,43.2,35,78.2,78.2,78.2c43.2,0,78.2-35,78.2-78.2
			C297,341.8,262,306.8,218.9,306.8z M256.8,449.9c-36,21.1-82.3,9-103.4-27c-21.1-36-9-82.3,27-103.4c36-21.1,82.3-9,103.4,27
			C304.9,382.5,292.8,428.8,256.8,449.9z"/>
	</g>
	<linearGradient id="SVGID_15_" gradientUnits="userSpaceOnUse" x1="202.275" y1="361.0061" x2="263.2792" y2="449.8981">
		<stop  offset="0" style="stop-color:#DEDFE0"/>
		<stop  offset="0.1656" style="stop-color:#D7D8D9"/>
		<stop  offset="0.4078" style="stop-color:#C3C5C7"/>
		<stop  offset="0.697" style="stop-color:#A3A7A9"/>
		<stop  offset="1" style="stop-color:#7A7F83"/>
	</linearGradient>
	<path fill="url(#SVGID_15_)" d="M211.5,372.7c-6.5,3.8-8.7,12.2-4.9,18.6c3.8,6.5,12.2,8.7,18.6,4.9s8.7-12.2,4.9-18.6
		C226.3,371.1,218,368.9,211.5,372.7z M222.7,391.8c-4.1,2.4-9.3,1-11.7-3c-2.4-4.1-1-9.3,3-11.7c4.1-2.4,9.3-1,11.7,3
		C228.1,384.2,226.7,389.4,222.7,391.8z"/>
	<g>
		<path fill="#DEDFE0" d="M207.6,392.4c-3.8-6.5-1.6-14.8,4.9-18.6c5.3-3.1,11.7-2.2,16,1.6c-4.2-4.7-11.3-6-17-2.7
			c-6.5,3.8-8.7,12.2-4.9,18.6c0.7,1.2,1.6,2.3,2.6,3.2C208.6,393.9,208.1,393.2,207.6,392.4z"/>
	</g>
</g>
<g id="g2">
	<linearGradient id="SVGID_16_" gradientUnits="userSpaceOnUse" x1="65.2942" y1="472.7559" x2="112.6275" y2="531.7559">
		<stop  offset="0" style="stop-color:#DEDFE0"/>
		<stop  offset="0.1656" style="stop-color:#D7D8D9"/>
		<stop  offset="0.4078" style="stop-color:#C3C5C7"/>
		<stop  offset="0.697" style="stop-color:#A3A7A9"/>
		<stop  offset="1" style="stop-color:#7A7F83"/>
	</linearGradient>
	<path fill="url(#SVGID_16_)" d="M74.7,479.7c-9.8,5.8-13.1,18.4-7.4,28.2c5.8,9.8,18.4,13.1,28.2,7.4c9.8-5.8,13.1-18.4,7.4-28.2
		C97.2,477.2,84.5,473.9,74.7,479.7z M90.4,506.5c-5,2.9-11.4,1.2-14.3-3.7c-2.9-5-1.2-11.4,3.7-14.3c5-2.9,11.4-1.2,14.3,3.7
		C97,497.2,95.4,503.6,90.4,506.5z"/>
	<g>
		<path fill="#DEDFE0" d="M68.9,509.5c-5.8-9.8-2.5-22.5,7.4-28.2c7.9-4.7,17.7-3.4,24.2,2.5c-6.4-7.2-17.2-9.1-25.8-4
			c-9.8,5.8-13.1,18.4-7.4,28.2c1.1,1.9,2.5,3.5,4,4.9C70.4,511.8,69.6,510.7,68.9,509.5z"/>
	</g>
	<g>
		<g id="g2Rotatable">
			
				<linearGradient id="SVGID_17_" gradientUnits="userSpaceOnUse" x1="50.6218" y1="446.617" x2="177.4845" y2="634.6455" gradientTransform="matrix(0.898 -0.44 0.44 0.898 -211.6198 87.0126)">
				<stop  offset="0" style="stop-color:#72767B"/>
				<stop  offset="1" style="stop-color:#DEDFE0"/>
			</linearGradient>
			<path fill="url(#SVGID_17_)" d="M51.6,444.2c-29.2,18.3-38,56.9-19.7,86.1c18.3,29.2,56.9,38,86.1,19.7
				c29.2-18.3,38-56.9,19.7-86.1C119.4,434.7,80.8,425.9,51.6,444.2z M52.9,446.3c8.1-5.1,18.8-2.6,23.9,5.5
				c5.1,8.1,2.6,18.8-5.5,23.9c-8.1,5.1-18.8,2.6-23.9-5.5C42.3,462.1,44.8,451.4,52.9,446.3z M57.9,534.5
				c-8.1,5.1-18.8,2.6-23.9-5.5c-5.1-8.1-2.6-18.8,5.5-23.9c8.1-5.1,18.8-2.6,23.9,5.5C68.5,518.7,66,529.4,57.9,534.5z
				 M116.7,547.9c-8.1,5.1-18.8,2.6-23.9-5.5c-5.1-8.1-2.6-18.8,5.5-23.9c8.1-5.1,18.8-2.6,23.9,5.5
				C127.3,532.1,124.8,542.8,116.7,547.9z M94.9,513.2c-8.9,5.6-20.7,2.9-26.2-6c-5.6-8.9-2.9-20.7,6-26.2c8.9-5.6,20.7-2.9,26.2,6
				C106.5,495.9,103.8,507.6,94.9,513.2z M130.2,489.1c-8.1,5.1-18.8,2.6-23.9-5.5c-5.1-8.1-2.6-18.8,5.5-23.9
				c8.1-5.1,18.8-2.6,23.9,5.5C140.7,473.3,138.3,484,130.2,489.1z"/>
			
				<linearGradient id="SVGID_18_" gradientUnits="userSpaceOnUse" x1="21.8127" y1="402.4662" x2="191.0311" y2="657.3785" gradientTransform="matrix(0.898 -0.44 0.44 0.898 -211.6198 87.0126)">
				<stop  offset="0" style="stop-color:#DEDFE0"/>
				<stop  offset="1" style="stop-color:#7A7F83"/>
			</linearGradient>
			<path fill="url(#SVGID_18_)" d="M153.3,454.1L153.3,454.1l-2.4-3.7c0,0-5.6-0.1-11.8,3.5c-0.2,0.1-0.5,0.3-0.7,0.4
				c-2.4-2.9-5-5.6-7.7-8.1c0.2-0.3,0.4-0.5,0.5-0.8c3.9-6,4.1-11.6,4.1-11.6l-3.5-2.6l0,0l-0.1-0.1l-0.1-0.1l0,0l-3.6-2.5
				c0,0-5.2,2.1-9.6,7.7c-0.2,0.3-0.4,0.5-0.6,0.8c-3.3-1.8-6.7-3.3-10.2-4.5c0.1-0.4,0.2-0.7,0.2-1.1c1.3-7-0.6-12.3-0.6-12.3
				l-4.3-1.1l0,0l-0.1,0l-0.1,0l0,0l-4.3-0.9c0,0-4,3.9-5.9,10.8c-0.1,0.3-0.2,0.7-0.3,1.1c-3.5-0.4-7.1-0.5-10.7-0.4
				c-0.1-0.8-0.3-1.5-0.4-2.1c-1.5-7-5.3-11.1-5.3-11.1l-4.3,0.7l0,0l-0.1,0l-0.1,0l0,0l-4.3,0.8c0,0-2.2,5.1-1.3,12.3
				c0.1,0.6,0.2,1.3,0.3,2c-3.6,1-7.2,2.3-10.7,3.9c-0.3-0.4-0.5-0.8-0.7-1.1c-4.1-5.9-9.1-8.3-9.1-8.3l-3.8,2.3l0,0l-0.1,0.1
				l-0.1,0.1l0,0l-3.7,2.4c0,0-0.1,5.6,3.5,11.8c0.2,0.3,0.4,0.7,0.6,1c-3,2.3-5.7,4.8-8.2,7.5c-0.3-0.2-0.6-0.4-0.8-0.5
				c-6-3.9-11.6-4.1-11.6-4.1l-2.6,3.5l0,0l-0.1,0.1l-0.1,0.1l0,0l-2.5,3.6c0,0,2.1,5.2,7.7,9.6c0.2,0.1,0.4,0.3,0.6,0.4
				c-1.9,3.3-3.5,6.7-4.8,10.2c-0.2,0-0.3-0.1-0.5-0.1c-7-1.3-12.3,0.6-12.3,0.6l-1.1,4.3l0,0l0,0.1l0,0.1l0,0l-0.9,4.3
				c0,0,3.9,4,10.8,5.9c0.1,0,0.1,0,0.2,0c-0.5,3.8-0.7,7.7-0.6,11.6c-7,1.5-11.1,5.3-11.1,5.3l0.7,4.3l0,0l0,0.1l0,0.1l0,0l0.8,4.3
				c0,0,5,2.1,11.9,1.3c1,3.8,2.3,7.5,4,11.1c-5.7,4-8,8.9-8,8.9l2.3,3.8l0,0L16,540L16,540l0,0l2.4,3.7c0,0,5.3,0.1,11.3-3.2
				c2.5,3.2,5.2,6.2,8.1,8.8c-3.5,5.7-3.7,10.9-3.7,10.9l3.5,2.6l0,0l0.1,0.1l0.1,0.1l0,0l3.6,2.5c0,0,4.7-1.9,9-7
				c3.5,2,7.2,3.7,11,5c-0.9,6.5,0.8,11.2,0.8,11.2l4.3,1.1l0,0l0.1,0l0.1,0l0,0l4.3,0.9c0,0,3.6-3.5,5.6-9.7
				c4,0.5,8.1,0.6,12.2,0.4c1.6,6.3,5,9.9,5,9.9l4.3-0.7l0,0l0.1,0l0.1,0l0,0l4.3-0.8c0,0,2-4.6,1.4-11c4.1-1.2,8.1-2.7,12-4.7
				c3.9,5,8.2,7,8.2,7l3.8-2.3l0,0l0.1-0.1l0.1-0.1l0,0l3.7-2.4c0,0,0.1-4.9-2.8-10.6c3.2-2.6,6.1-5.5,8.7-8.6
				c5.6,3.4,10.7,3.6,10.7,3.6l2.6-3.5l0,0l0.1-0.1l0.1-0.1l0,0l2.5-3.6c0,0-1.9-4.9-7.2-9.2c1.8-3.5,3.3-7.2,4.5-10.9
				c6.9,1.2,12-0.7,12-0.7l1.1-4.3l0,0l0-0.1l0-0.1l0,0l0.9-4.3c0,0-3.9-4-10.8-5.9c0,0-0.1,0-0.1,0c0.3-3.5,0.3-6.9,0.1-10.4
				c0,0,0.1,0,0.1,0c7-1.5,11.1-5.3,11.1-5.3l-0.7-4.3l0,0l0-0.1l0-0.1l0,0l-0.8-4.3c0,0-5.1-2.2-12.3-1.3c-0.1,0-0.2,0-0.3,0
				c-1.1-3.6-2.5-7.1-4.2-10.6c0.2-0.1,0.4-0.3,0.6-0.4c5.9-4.1,8.3-9.1,8.3-9.1l-2.3-3.8l0,0L153.3,454.1L153.3,454.1z M118,550
				c-29.2,18.3-67.7,9.5-86.1-19.7c-18.3-29.2-9.5-67.7,19.7-86.1c29.2-18.3,67.7-9.5,86.1,19.7C156,493.1,147.2,531.6,118,550z"/>
		</g>
		<linearGradient id="SVGID_19_" gradientUnits="userSpaceOnUse" x1="29.3956" y1="416.5551" x2="159.2965" y2="606.0173">
			<stop  offset="0" style="stop-color:#7A7F83"/>
			<stop  offset="1" style="stop-color:#EBECEC"/>
		</linearGradient>
		<path fill="url(#SVGID_19_)" d="M84.9,432.8c-35.7,0-64.7,29-64.7,64.7s29,64.7,64.7,64.7s64.7-29,64.7-64.7
			S120.6,432.8,84.9,432.8z M116.3,551.2c-29.8,17.5-68.1,7.5-85.6-22.3C13.2,499,23.2,460.7,53,443.3s68.1-7.5,85.6,22.3
			C156.1,495.4,146,533.7,116.3,551.2z"/>
	</g>
</g>
<g id="g1">
	<g>
		<g id="g1Rotatable">
			<linearGradient id="SVGID_20_" gradientUnits="userSpaceOnUse" x1="449.6308" y1="378.8839" x2="662.9432" y2="695.0432">
				<stop  offset="0" style="stop-color:#72767B"/>
				<stop  offset="1" style="stop-color:#DEDFE0"/>
			</linearGradient>
			<path fill="url(#SVGID_20_)" d="M446.4,381.9c-46.7,34.4-56.6,100.1-22.3,146.8c34.4,46.7,100.1,56.6,146.8,22.3
				c46.7-34.4,56.6-100.1,22.3-146.8C558.8,357.5,493.1,347.5,446.4,381.9z M497.5,451.3c8.4-6.2,20.2-4.4,26.4,4
				c6.2,8.4,4.4,20.2-4,26.4c-8.4,6.2-20.2,4.4-26.4-4C487.3,469.2,489.1,457.4,497.5,451.3z M449.1,524.3
				c-18.8,2.1-28.5,2.3-34.3-49c-5.7-51.3,3.8-53.3,22.6-55.4c18.8-2.1,38.7,31.3,40.6,48.3C479.9,485.2,467.8,522.2,449.1,524.3z
				 M564.1,540.6c-41.6,30.6-48.1,23.3-59.3,8.1c-11.2-15.2,7.8-49.2,21.5-59.3c13.7-10.1,51.9-18.2,63.1-3
				C600.6,501.6,605.7,510,564.1,540.6z M582.7,425.9c-7.6,17.3-46.5,17.9-62.2,11c-15.6-6.8-41.7-35.8-34.1-53.1
				c7.6-17.3,12.3-25.9,59.6-5.2C593.4,399.3,590.3,408.6,582.7,425.9z"/>
			<linearGradient id="SVGID_21_" gradientUnits="userSpaceOnUse" x1="396.4479" y1="312.5529" x2="700.0374" y2="728.3124">
				<stop  offset="0" style="stop-color:#DEDFE0"/>
				<stop  offset="1" style="stop-color:#7A7F83"/>
			</linearGradient>
			<path fill="url(#SVGID_21_)" d="M643.1,459.4c-0.1-2.4-0.3-4.9-0.6-7.3c-0.1-1.4-0.3-2.8-0.5-4.2c8.5-2.1,13.5-6.3,13.5-6.3
				l-0.8-4.6l0,0l0-0.1l0-0.1l0,0l-1-4.5c0,0-6.2-2-14.8-0.6c-1-3.8-2.2-7.5-3.4-11.1c7.8-3.8,11.8-8.9,11.8-8.9l-1.7-4.3l0,0l0-0.1
				l0-0.1l0,0l-1.9-4.2c0,0-6.5-0.6-14.6,2.5c-1.8-3.5-3.6-6.9-5.7-10.2c6.8-5.3,9.6-11.1,9.6-11.1l-2.6-3.8l0,0l-0.1-0.1l-0.1-0.1
				l0,0l-2.8-3.7c0,0-6.4,0.7-13.7,5.4c-2.4-3-5-6-7.7-8.8c5.6-6.6,7.1-12.9,7.1-12.9l-3.3-3.2l0,0l-0.1-0.1l-0.1-0.1l0,0l-3.5-3.1
				c0,0-6.1,2-12.2,8.1c-3-2.5-6.1-4.8-9.3-7c4-7.6,4.2-14,4.2-14l-3.9-2.4l0,0l-0.1-0.1l-0.1-0.1l0,0l-4-2.3c0,0-5.5,3.2-10.2,10.3
				c-3.5-1.8-7-3.5-10.6-5c2.3-8.2,1.2-14.4,1.2-14.4l-4.4-1.6l0,0l-0.1,0l-0.1,0l0,0L552,324c0,0-4.6,4.2-7.7,12.1
				c-3.8-1-7.6-1.9-11.5-2.6c0.5-8.4-1.9-14.2-1.9-14.2l-4.6-0.6l0,0l-0.1,0l-0.1,0l0,0l-4.6-0.4c0,0-3.6,5-5,13.3
				c-4.7-0.3-9.4-0.3-14.2-0.1c-1.4-8.2-4.9-13.2-4.9-13.2l-4.6,0.4l0,0l-0.1,0l-0.1,0l0,0l-4.6,0.6c0,0-2.4,5.7-2,13.9
				c-3.9,0.7-7.8,1.5-11.6,2.4c-3-7.7-7.5-11.9-7.5-11.9l-4.4,1.3l0,0l-0.1,0l-0.1,0l0,0l-4.4,1.5c0,0-1.2,6,0.9,14
				c-3.7,1.5-7.3,3.1-10.8,4.8c-4.6-6.9-9.8-10.1-9.8-10.1l-4.1,2.2l0,0l-0.1,0.1l-0.1,0.1l0,0l-4,2.4c0,0,0.1,6.1,3.8,13.5
				c-3.3,2.2-6.5,4.5-9.6,7c-5.9-5.8-11.7-7.8-11.7-7.8l-3.5,3l0,0l-0.1,0.1l-0.1,0.1l0,0l-3.4,3.2c0,0,1.4,6,6.6,12.5
				c-2.8,2.8-5.4,5.8-7.9,8.8c-7-4.5-13.1-5.2-13.1-5.2l-2.8,3.7l0,0l-0.1,0.1L388,379l0,0l-2.6,3.8c0,0,2.6,5.6,9,10.8
				c-2.1,3.3-4.1,6.8-5.9,10.3c-7.8-2.9-13.9-2.4-13.9-2.4l-2,4.2l0,0l0,0.1l0,0.1l0,0l-1.8,4.3c0,0,3.7,4.9,11,8.7
				c-1.4,3.7-2.6,7.5-3.7,11.3c-8.2-1.2-14,0.6-14,0.6l-1.1,4.5l0,0l0,0.1l0,0.1l0,0l-0.9,4.5c0,0,4.6,4,12.6,6.2
				c-0.6,3.9-1,7.8-1.2,11.8c-8.3,0.5-13.6,3.5-13.6,3.5l-0.1,4.6h0l0,0.1l0,0.1h0l0.1,4.6c0,0,5.4,3,13.7,3.5
				c0.1,2,0.3,3.9,0.5,5.9s0.5,3.9,0.8,5.9c-8,2.2-12.6,6.2-12.6,6.2l0.9,4.5l0,0l0,0.1l0,0.1l0,0l1.1,4.5c0,0,5.9,1.8,14.1,0.6
				c1.1,3.8,2.3,7.6,3.6,11.3c-7.3,3.8-11,8.7-11,8.7l1.8,4.3l0,0l0,0.1l0,0.1l0,0l2,4.2c0,0,6.1,0.5,13.8-2.4
				c1.8,3.5,3.8,6.9,5.9,10.3c-6.4,5.3-9,10.8-9,10.8l2.6,3.8l0,0l0.1,0.1l0.1,0.1l0,0l2.8,3.7c0,0,6.1-0.8,13.1-5.2
				c2.5,3,5.1,5.9,7.9,8.7c-5.2,6.5-6.6,12.4-6.6,12.4l3.4,3.2l0,0l0.1,0.1l0.1,0.1l0,0l3.5,3c0,0,5.9-2,11.8-7.8
				c3.1,2.5,6.3,4.8,9.5,7c-3.8,7.5-4,13.7-4,13.7l3.9,2.4l0,0l0.1,0.1l0.1,0.1l0,0l4,2.3c0,0,5.4-3.2,10-10.2
				c3.5,1.8,7.1,3.3,10.7,4.8c-2.2,8.2-1.1,14.3-1.1,14.3l4.4,1.5l0,0l0.1,0l0.1,0l0,0l4.4,1.4c0,0,4.7-4.3,7.7-12.2
				c3.8,1,7.6,1.8,11.5,2.5c-0.5,8.5,1.9,14.4,1.9,14.4l4.6,0.6l0,0l0.1,0l0.1,0l0,0l4.6,0.4c0,0,3.7-5.2,5-13.7
				c3.9,0.2,7.8,0.2,11.7,0c1.2,8.5,4.9,13.8,4.9,13.8l4.6-0.4l0,0l0.1,0l0.1,0l0,0l4.6-0.6c0,0,2.6-5.9,2.1-14.5
				c3.9-0.6,7.7-1.4,11.4-2.4c3,8.1,7.7,12.5,7.7,12.5l4.4-1.3l0,0l0.1,0l0.1,0l0,0l4.4-1.5c0,0,1.3-6.3-1-14.7
				c3.6-1.4,7.2-3,10.7-4.7c4.6,7.3,10.1,10.7,10.1,10.7l4.1-2.2l0,0l0.1-0.1l0.1-0.1l0,0l4-2.4c0,0-0.1-6.5-4.1-14.2
				c3.2-2.1,6.4-4.4,9.4-6.8c6,6.2,12.2,8.4,12.2,8.4l3.5-3l0,0l0.1-0.1l0.1-0.1l0,0l3.4-3.1c0,0-1.4-6.4-6.9-13.1
				c2.7-2.8,5.3-5.6,7.8-8.6c7.2,4.9,13.7,5.7,13.7,5.7l2.8-3.7l0,0l0.1-0.1l0.1-0.1l0,0l2.7-3.8c0,0-2.7-5.9-9.5-11.3
				c2.1-3.3,4.1-6.6,5.9-10c8,3.2,14.5,2.7,14.5,2.7l2-4.2l0,0l0-0.1l0-0.1l0,0l1.8-4.3c0,0-3.9-5.2-11.6-9.1
				c1.4-3.6,2.6-7.2,3.7-11c8.5,1.5,14.8-0.3,14.8-0.3l1.1-4.5l0,0l0-0.1l0-0.1l0,0l0.9-4.5c0,0-4.9-4.3-13.3-6.6
				c0.6-3.8,1.1-7.7,1.3-11.5c8.7-0.3,14.4-3.3,14.4-3.3l0.1-4.6h0l0-0.1l0-0.1l0,0l0-4.6C657.4,463.1,651.8,459.8,643.1,459.4z
				 M571,551c-46.7,34.4-112.4,24.4-146.8-22.3c-34.4-46.7-24.4-112.4,22.3-146.8c46.7-34.4,112.4-24.4,146.8,22.3
				C627.6,450.9,617.7,516.6,571,551z"/>
		</g>
		<linearGradient id="SVGID_22_" gradientUnits="userSpaceOnUse" x1="415.9407" y1="338.8186" x2="597.3507" y2="588.4091">
			<stop  offset="0" style="stop-color:#595F64"/>
			<stop  offset="1" style="stop-color:#FFFFFF"/>
		</linearGradient>
		<path fill="url(#SVGID_22_)" d="M616.5,466.6c0-59.5-48.2-107.8-107.8-107.8S401,407.1,401,466.6c0,59.5,48.2,107.7,107.8,107.7
			S616.5,526.1,616.5,466.6z M561.6,556.8c-49.8,29.2-113.9,12.5-143.1-37.4c-29.2-49.8-12.5-113.9,37.4-143.1
			c49.8-29.2,113.9-12.5,143.1,37.4C628.2,463.5,611.5,527.6,561.6,556.8z"/>
	</g>
	<g>
		<linearGradient id="SVGID_23_" gradientUnits="userSpaceOnUse" x1="485.1336" y1="432.9761" x2="572.6857" y2="560.5521">
			<stop  offset="0" style="stop-color:#DEDFE0"/>
			<stop  offset="0.1656" style="stop-color:#D7D8D9"/>
			<stop  offset="0.4078" style="stop-color:#C3C5C7"/>
			<stop  offset="0.697" style="stop-color:#A3A7A9"/>
			<stop  offset="1" style="stop-color:#7A7F83"/>
		</linearGradient>
		<path fill="url(#SVGID_23_)" d="M498.3,449.7c-9.3,5.5-12.4,17.4-7,26.8c5.5,9.3,17.4,12.5,26.8,7c9.3-5.5,12.5-17.4,7-26.8
			C519.6,447.4,507.6,444.3,498.3,449.7z M514.4,477.2c-5.8,3.4-13.3,1.5-16.8-4.4c-3.4-5.8-1.5-13.3,4.4-16.8
			c5.8-3.4,13.3-1.5,16.8,4.4C522.2,466.2,520.2,473.7,514.4,477.2z"/>
		<g>
			<path fill="#EBECEC" d="M492.8,478c-5.5-9.3-2.3-21.3,7-26.8c7.5-4.4,16.8-3.2,23,2.3c-6.1-6.8-16.3-8.6-24.5-3.8
				c-9.3,5.5-12.4,17.4-7,26.8c1,1.8,2.3,3.3,3.8,4.7C494.3,480.2,493.5,479.1,492.8,478z"/>
		</g>
	</g>
	<g>
		<g>
			<path fill="#EBECEC" d="M492.8,478c-5.5-9.3-2.3-21.3,7-26.8c7.5-4.4,16.8-3.2,23,2.3c-6.1-6.8-16.3-8.6-24.5-3.8
				c-9.3,5.5-12.4,17.4-7,26.8c1,1.8,2.3,3.3,3.8,4.7C494.3,480.2,493.5,479.1,492.8,478z"/>
		</g>
	</g>
</g>
</svg>
